<svg xmlns="http://www.w3.org/2000/svg" viewBox="0 0 192 192" width="192" height="192">
  <defs>
    <linearGradient id="bg" x1="0%" y1="0%" x2="100%" y2="100%">
      <stop offset="0%" stop-color="#4f46e5" />
      <stop offset="50%" stop-color="#6366f1" />
      <stop offset="100%" stop-color="#8b5cf6" />
    </linearGradient>
    <linearGradient id="glow" x1="0%" y1="0%" x2="100%" y2="100%">
      <stop offset="0%" stop-color="#ffffff" stop-opacity="0.3" />
      <stop offset="100%" stop-color="#ffffff" stop-opacity="0" />
    </linearGradient>
  </defs>
  <rect width="192" height="192" rx="40" fill="url(#bg)" />
  <rect width="192" height="192" rx="40" fill="url(#glow)" />
  <!-- Book and sparkle emblem -->
  <g transform="translate(36, 36) scale(5)" stroke="#ffffff" stroke-width="2" fill="none" stroke-linecap="round" stroke-linejoin="round">
    <path d="M2 3h6a4 4 0 0 1 4 4v14a3 3 0 0 0-3-3H2z" />
    <path d="M22 3h-6a4 4 0 0 0-4 4v14a3 3 0 0 1 3-3h7z" />
  </g>
  <circle cx="96" cy="72" r="6" fill="#38bdf8" />
  <circle cx="120" cy="58" r="4" fill="#fbbf24" />
</svg>
